<?xml version="1.0" standalone="no"?>

<svg xmlns="http://www.w3.org/2000/svg" xmlns:xlink="http://www.w3.org/1999/xlink" width="500" height="500">
  
  <path d="M 209.808 194.437 C 207.906 196.096 207.837 196.788 207.699 219.157 L 207.56 239.625 L 205.866 240.489 C 203.169 241.838 203.1 241.803 203.308 238.657 C 203.584 235.096 203.135 233.678 200.922 231.154 C 198.225 228.077 197.119 227.178 194.906 226.245 C 191.103 224.62 188.614 224.101 184.776 224.067 L 181.146 224.067 L 178.968 226.037 C 177.757 227.109 176.133 228.803 175.337 229.84 C 170.393 236.271 169.805 237.274 169.425 239.971 C 169.149 241.768 168.699 242.391 167.696 242.391 C 166.21 242.391 166.106 241.25 166.106 223.098 L 166.106 206.123 L 165.276 204.256 C 164.792 203.184 163.962 202.008 163.306 201.49 C 162.095 200.591 159.157 199.865 156.736 199.865 C 154.593 199.865 147.229 203.599 146.503 205.051 C 146.364 205.327 146.157 208.059 146.053 211.101 C 145.88 215.146 145.465 218.535 144.566 223.79 C 142.803 233.574 142.285 235.13 140.106 237.239 C 139.138 238.173 138.239 238.933 138.136 238.933 C 137.997 238.933 137.375 237.481 136.753 235.718 L 135.577 232.537 L 135.301 221.474 C 135.162 215.388 134.886 209.373 134.678 208.093 C 133.918 203.599 130.754 199.787 129.302 199.787 C 128.127 199.787 122.75 200.453 120.78 201.905 C 118.601 203.495 118.394 203.772 117.391 206.399 C 115.421 211.482 115.282 212.484 115.282 220.782 C 115.282 229.564 114.764 237.585 114.141 238.899 C 113.484 240.282 112.067 240.282 110.649 238.864 C 108.54 236.755 107.987 234.162 107.641 224.793 C 107.469 219.745 107.157 215.527 106.777 213.694 C 106.466 212.069 106.12 208.647 105.982 206.054 C 105.844 202.838 105.636 201.179 105.29 200.764 C 104.149 199.381 95.022 200.453 92.878 202.25 L 91.772 203.149 L 91.634 215.25 C 91.53 223.375 91.322 228.941 90.908 232.191 C 89.974 240.282 89.732 243.705 89.732 249.548 C 89.697 254.319 89.801 255.391 90.354 256.635 C 91.807 259.92 92.118 260.75 92.118 261.234 C 92.118 261.545 92.256 262.029 92.429 262.375 C 92.567 262.686 93.017 263.585 93.362 264.311 C 94.227 266.143 96.474 268.252 97.995 268.667 C 98.652 268.84 101.66 269.013 104.668 269.013 L 110.165 269.013 L 112.101 267.492 C 114.695 265.486 121.506 258.744 121.506 258.157 C 121.506 257.949 123.615 255.875 123.787 255.875 C 123.891 255.875 124.479 255.321 125.101 254.665 C 126 253.731 126.519 253.454 127.487 253.454 C 128.801 253.454 128.835 253.489 130.495 256.808 C 130.875 257.638 131.325 258.295 131.463 258.295 C 131.601 258.295 131.878 258.641 132.085 259.09 C 133.399 261.683 133.952 262.478 136.234 264.864 C 139.519 268.287 139.864 268.39 149.856 268.598 L 157.67 268.736 L 158.742 267.007 C 159.33 266.039 159.917 264.933 160.056 264.553 C 160.159 264.138 160.436 263.827 160.609 263.827 C 160.782 263.827 160.92 263.585 160.92 263.308 C 160.92 262.755 161.611 261.372 162.026 261.061 C 162.13 260.957 162.51 260.231 162.822 259.401 C 163.167 258.606 163.548 257.949 163.686 257.949 C 163.859 257.949 164.308 257.396 164.723 256.739 C 165.138 256.082 165.587 255.529 165.76 255.529 C 166.279 255.529 167.489 258.329 167.489 259.609 C 167.489 260.3 167.696 261.476 167.973 262.202 C 168.595 264 170.774 266.523 171.914 266.8 C 172.433 266.938 173.47 267.353 174.231 267.803 C 174.992 268.218 176.409 268.736 177.343 268.978 C 178.311 269.22 179.624 269.566 180.316 269.773 C 182.425 270.396 187.404 269.981 189.962 268.944 C 191.207 268.46 192.866 267.872 193.696 267.63 C 195.321 267.111 197.81 264.898 198.122 263.688 C 198.191 263.308 198.329 261.787 198.364 260.369 L 198.433 257.776 L 192.728 257.776 C 185.329 257.776 185.122 257.672 185.122 254.008 C 185.122 251.657 185.191 251.449 185.917 251.242 C 186.332 251.138 190.273 251.034 194.699 251.034 L 202.72 251.034 L 203.411 252.037 C 203.826 252.59 204.137 253.385 204.137 253.766 C 204.137 254.181 204.345 254.595 204.621 254.699 C 204.898 254.803 205.175 255.633 205.313 256.67 C 205.728 259.885 206.973 266.385 207.387 267.284 C 207.941 268.563 209.324 269.981 210.914 270.949 C 212.228 271.71 212.677 271.779 216.999 271.779 C 221.424 271.779 221.701 271.744 222.393 270.983 C 222.807 270.534 223.153 269.912 223.153 269.566 C 223.153 269.255 223.326 268.632 223.533 268.218 C 223.775 267.837 224.087 266.005 224.225 264.172 C 224.882 257.119 225.539 253.8 226.265 253.8 C 226.438 253.8 227.06 253.109 227.682 252.244 C 228.754 250.758 228.892 250.689 230.448 250.689 C 232.073 250.689 232.108 250.723 232.799 252.244 C 233.18 253.109 233.595 254.768 233.733 255.978 C 234.113 259.712 236.257 262.997 239.922 265.555 C 240.855 266.247 242.203 267.007 242.86 267.284 C 243.517 267.526 244.243 267.872 244.485 268.045 C 245.384 268.736 249.118 269.324 252.645 269.359 L 256.93 268.773 L 260.057 268.223 C 260.264 267.705 260.61 267.018 260.748 266.914 C 260.921 266.776 261.429 265.543 261.463 264.506 L 260.661 263.259 L 256.483 263.101 C 255.722 262.962 254.546 262.513 253.889 262.133 C 252.679 261.406 251.561 260.948 250.662 260.637 C 250.599 259.838 250.736 252.942 250.426 253.465 C 250.302 253.673 250.989 249.37 251.542 248.817 C 251.287 248.562 256.729 244.787 256.729 244.787 L 261.076 244.683 L 266.513 246.386 L 265.852 260.162 L 267.283 266.073 L 268.67 268.932 C 269.88 270.038 268.134 270.776 273.873 270.983 C 278.126 271.156 278.541 271.087 280.097 270.327 C 280.995 269.912 281.894 269.324 282.033 269.116 C 282.171 268.874 282.482 268.667 282.724 268.667 C 283.554 268.667 287.115 264.795 287.461 263.516 C 287.634 262.824 287.807 259.643 287.807 256.428 C 287.807 251.242 287.876 250.481 288.498 249.513 C 289.57 247.75 290.434 247.473 294.099 247.646 C 298.282 247.888 300.634 248.683 301.878 250.308 C 302.708 251.38 302.881 251.933 302.985 254.25 C 303.054 255.944 302.881 258.053 302.501 259.782 C 302.155 261.51 301.982 263.688 302.051 265.382 L 302.155 268.148 L 304.229 268.39 C 310.625 269.186 310.141 269.22 311.455 267.837 C 312.631 266.523 314.429 261.787 314.429 259.989 C 314.429 258.779 315.12 255.149 315.431 254.492 C 315.604 254.181 315.846 253.454 315.984 252.832 C 316.088 252.21 316.33 251.726 316.503 251.726 C 316.641 251.726 316.849 251.449 316.918 251.103 C 317.194 250.032 319.891 248.96 322.519 248.856 L 324.939 248.787 L 325.25 249.997 C 325.388 250.654 325.665 254.595 325.803 258.744 C 326.045 265.175 326.184 266.351 326.702 266.938 C 327.498 267.837 330.333 268.39 333.237 268.252 L 335.657 268.148 L 336.21 266.593 C 337.559 262.962 338.181 260.784 338.63 258.122 C 339.045 255.909 339.668 253.662 340.359 251.899 C 341.604 248.856 341.5 248.96 342.779 248.96 C 344.404 248.96 346.34 250.585 347.343 252.694 C 348 254.111 348.104 255.114 348.242 260.888 L 348.415 267.457 L 349.452 268.736 L 350.489 270.05 L 353.463 270.05 C 356.816 270.015 357.508 269.67 358.407 267.63 C 358.683 266.973 359.133 265.936 359.409 265.382 C 359.755 264.622 359.893 261.925 359.997 255.252 L 360.135 246.194 L 361.657 246.194 C 362.486 246.194 363.212 246.228 363.212 246.263 C 363.247 246.332 363.351 250.55 363.489 255.633 L 363.696 264.898 L 365.287 266.351 C 367.154 268.045 371.891 271.087 372.651 271.087 C 372.928 271.087 373.239 271.226 373.343 271.398 C 373.446 271.571 374.138 271.779 374.829 271.882 C 375.555 271.986 376.835 272.228 377.699 272.401 C 378.563 272.608 382.712 272.85 386.965 272.989 C 394.018 273.231 395.539 273.438 394.122 273.991 C 393.292 274.303 393.465 277.207 394.398 278.832 C 395.781 281.252 396.576 281.632 401.002 281.736 L 404.909 281.874 L 406.119 280.699 C 407.26 279.627 407.329 279.42 407.571 276.515 C 407.709 274.856 407.744 273.369 407.64 273.196 C 407.536 273.058 405.738 272.816 403.664 272.678 C 401.555 272.574 399.851 272.644 399.54 272.541 C 398.848 272.264 400.887 269.761 401.579 269.519 C 401.855 269.415 401.863 269.257 402.554 268.289 C 403.28 267.286 404.318 266.562 404.698 266.285 C 405.736 265.593 407.882 260.888 409.645 258.641 C 411.651 256.082 414.002 251.657 414.589 249.306 C 415.35 246.298 415.972 226.832 415.419 223.444 C 414.831 219.883 413.206 216.391 411.443 214.87 C 410.164 213.764 409.922 213.694 407.605 213.694 C 405.254 213.694 405.082 213.764 403.941 214.87 C 402.039 216.771 400.864 218.189 400.864 218.569 C 400.864 218.777 400.276 219.883 399.584 221.059 L 398.27 223.133 L 398.028 232.157 C 397.925 237.136 397.648 242.114 397.441 243.255 C 396.853 246.505 396.957 259.816 397.579 261.891 C 397.856 262.824 398.098 264.414 398.098 265.452 L 398.098 267.284 L 396.576 267.284 C 395.332 267.284 394.779 267.042 393.568 266.039 C 391.529 264.345 389.834 263.55 386.93 262.928 C 384.061 262.305 383.023 261.891 381.952 260.853 C 381.537 260.473 380.292 259.885 379.151 259.574 C 378.045 259.263 376.731 258.641 376.212 258.157 C 375.348 257.361 375.279 257.085 375.279 254.353 C 375.279 251.657 375.348 251.345 376.143 250.55 C 377.042 249.651 377.353 249.548 379.912 249.133 C 380.672 248.994 381.917 248.614 382.678 248.268 C 383.473 247.923 385.029 247.404 386.17 247.058 C 388.97 246.263 389.8 245.848 391.494 244.5 C 393.88 242.564 394.294 241.561 394.294 237.896 C 394.294 234.888 394.225 234.646 393.257 233.402 C 392.704 232.675 392.22 231.984 392.22 231.88 C 392.22 231.362 390.699 228.319 389.938 227.282 C 389.454 226.66 388.659 226.106 388.002 225.968 C 387.38 225.83 386.654 225.588 386.342 225.45 C 382.954 223.755 380.499 223.271 374.76 223.133 C 368.433 222.995 367.119 223.271 363.074 225.622 C 360.896 226.936 360.723 227.109 360.205 228.907 C 359.893 229.944 359.513 231.154 359.34 231.604 C 359.167 232.053 359.029 232.848 359.029 233.436 C 359.029 234.3 358.856 234.473 357.992 234.681 C 357.404 234.785 356.851 235.027 356.747 235.165 C 356.643 235.338 355.572 235.476 354.327 235.476 L 352.114 235.476 L 350.973 233.886 C 350.386 233.021 348.484 230.912 346.79 229.218 C 343.609 226.003 342.71 225.588 341.638 226.729 C 340.705 227.801 338.976 233.194 338.976 235.096 C 338.976 237.066 337.178 239.314 334.032 241.25 C 331.162 242.979 331.024 242.944 326.737 238.034 C 326.045 237.239 325.492 236.271 325.492 235.891 C 325.492 235.476 325.354 235.061 325.146 234.957 C 324.974 234.854 324.559 234.231 324.282 233.609 C 323.971 232.987 323.21 231.915 322.588 231.189 L 321.412 229.944 L 318.301 229.944 C 316.157 229.944 315.085 230.082 314.878 230.359 C 314.74 230.601 314.567 232.641 314.498 234.854 C 314.394 237.343 314.221 239.037 313.944 239.21 C 313.599 239.487 314.191 239.416 310.907 240.281 C 309.005 240.799 309.377 240.769 308.927 240.215 C 308.098 239.213 308.935 240.435 307.659 237.357 C 306.068 233.52 306.583 235.032 306.402 234.742 C 306.218 234.447 305.413 232.694 305.309 232.521 C 305.206 232.314 302.281 229.471 300.483 229.471 C 297.718 229.471 298.231 232.271 298.184 232.953 C 298.228 233.325 298.424 233.522 298.656 235.213 C 298.894 236.948 299.07 236.622 299.139 238.42 C 299.073 238.878 299.123 239.888 298.826 239.799 L 289.038 238.517 C 286.756 238.241 287.716 237.587 285.365 234.371 C 284.431 233.058 281.984 231.186 280.878 230.01 C 278.873 227.867 276.328 228.285 273.942 228.043 C 268.722 227.524 268.03 227.801 267.373 230.808 C 267.166 231.777 266.82 233.367 266.613 234.335 L 266.65 239.263 L 262.667 237.254 C 260.731 237.22 259.663 236.629 259.145 236.352 C 258.695 236.11 257.174 234.093 255.791 232.745 C 252.506 229.46 251.366 228.907 247.632 228.665 C 244.727 228.457 244.589 228.492 242.031 229.771 C 239.438 231.051 239.334 231.154 237.086 234.577 C 235.842 236.479 234.424 238.657 233.94 239.383 C 232.488 241.596 231.658 242.045 229.169 242.045 L 226.991 242.045 L 226.749 240.42 C 226.611 239.521 226.299 238.276 226.057 237.654 C 225.781 237.032 225.573 235.338 225.573 233.886 C 225.573 230.981 225.124 227.628 224.329 224.896 C 224.052 223.928 223.845 222.442 223.845 221.543 C 223.845 220.678 223.706 219.849 223.499 219.745 C 223.326 219.641 223.153 218.846 223.153 217.982 C 223.153 217.117 222.98 216.08 222.738 215.665 C 222.531 215.25 222.151 213.729 221.908 212.311 C 221.666 210.894 221.321 208.923 221.148 207.99 C 220.802 206.192 219.246 201.351 218.693 200.28 C 218.52 199.968 218.071 199 217.69 198.136 C 217.31 197.272 216.515 195.923 215.927 195.094 C 214.855 193.676 214.821 193.641 212.781 193.641 C 211.156 193.641 210.568 193.814 209.808 194.437 Z M 215.409 196.234 C 215.858 196.995 216.48 198.171 216.757 198.828 C 217.068 199.484 217.552 200.453 217.829 200.971 C 218.105 201.455 218.313 202.181 218.313 202.562 C 218.313 202.976 218.486 203.391 218.659 203.495 C 218.866 203.599 219.004 204.048 219.004 204.498 C 219.004 204.913 219.143 205.397 219.315 205.569 C 219.661 205.915 220.007 207.506 220.871 212.657 C 221.113 214.075 221.494 215.596 221.701 216.011 C 221.943 216.426 222.116 217.463 222.116 218.327 C 222.116 219.192 222.289 219.987 222.462 220.091 C 222.669 220.194 222.807 221.024 222.807 221.888 C 222.807 222.787 223.015 224.274 223.291 225.242 C 224.087 227.973 224.536 231.327 224.536 234.197 C 224.536 235.649 224.709 237.239 224.916 237.792 C 225.158 238.311 225.504 239.694 225.712 240.835 L 226.092 242.909 L 229.065 243.013 L 232.004 243.117 L 233.214 241.907 C 235.116 239.971 235.6 239.417 235.6 239.106 C 235.6 238.968 236.637 237.274 237.882 235.372 C 239.852 232.433 240.406 231.846 241.858 231.189 C 242.757 230.739 243.759 230.186 244.07 229.944 C 244.866 229.287 249.948 229.702 251.504 230.566 C 252.161 230.912 254.028 232.468 255.584 234.024 C 258.868 237.205 257.151 238.06 262.025 237.888 L 267.235 240.797 C 267.613 240.797 267.668 234.957 267.65 234.957 C 268.307 231.569 268.791 229.84 269.24 229.322 C 269.551 228.907 270.278 228.872 272.767 229.011 L 275.879 229.218 L 278.995 229.713 C 279.894 230.681 283.998 233.806 284.482 234.566 C 284.966 235.362 287.141 239.691 288.883 239.94 C 292.106 240.401 289.301 240.299 292.24 240.299 L 300.142 240.87 L 299.933 237.17 C 299.653 235.681 299.742 236.574 299.623 235.106 C 299.504 233.638 299.417 232.965 299.382 232.412 C 299.33 231.89 299.458 230.881 299.59 230.855 C 299.657 230.604 300.439 230.469 300.963 230.661 C 302.395 231.219 303.209 232.389 303.313 232.596 C 303.605 232.904 304.335 233.544 304.571 233.927 C 305.149 234.863 305.307 235.012 306.137 236.81 C 307.071 238.919 306.661 239.09 307.276 240.129 C 308.646 242.441 308.696 241.149 309.3 241.738 C 309.993 242.414 310.008 242.011 312.532 241.319 C 313.099 240.689 312.542 240.957 313.218 240.8 C 315.089 240.367 315.466 239.556 315.466 235.856 C 315.466 230.912 315.431 230.981 318.232 230.981 C 320.928 230.981 321.689 231.189 321.689 231.88 C 321.689 232.157 321.931 232.468 322.208 232.572 C 322.484 232.71 322.726 232.952 322.726 233.16 C 322.726 233.332 323.107 234.024 323.591 234.646 C 324.075 235.269 324.455 236.029 324.455 236.375 C 324.455 236.686 324.87 237.447 325.423 238.069 C 325.942 238.691 326.91 239.901 327.567 240.731 C 329.641 243.393 331.992 244.154 333.79 242.737 C 334.274 242.356 334.827 242.045 335 242.045 C 335.657 242.045 338.907 238.933 339.46 237.827 C 339.771 237.239 340.013 236.202 340.013 235.511 C 340.013 234.854 340.221 233.678 340.497 232.883 C 340.774 232.122 341.189 230.739 341.465 229.84 C 341.707 228.907 342.157 227.939 342.503 227.628 C 343.056 227.144 343.367 227.386 346.582 230.67 C 348.484 232.641 350.04 234.404 350.04 234.577 C 350.04 234.785 350.386 235.269 350.8 235.718 C 351.457 236.409 351.872 236.513 354.431 236.513 C 356.125 236.513 357.3 236.375 357.3 236.167 C 357.3 235.96 357.611 235.822 358.026 235.822 C 359.236 235.822 360.066 235.165 360.066 234.197 C 360.066 233.678 360.205 232.814 360.412 232.226 C 360.585 231.638 360.896 230.428 361.138 229.529 C 361.518 228.008 361.691 227.801 363.835 226.59 C 368.053 224.205 368.952 223.997 374.76 224.17 C 380.188 224.343 382.85 224.896 386.066 226.521 C 386.412 226.694 386.93 226.832 387.241 226.832 C 388.382 226.832 391.183 230.843 391.183 232.468 C 391.183 232.71 391.667 233.367 392.22 233.92 C 393.223 234.854 393.257 235.027 393.257 237.827 C 393.257 241.112 392.912 241.872 390.491 243.774 C 389.212 244.776 385.132 246.505 383.991 246.54 C 383.749 246.54 382.92 246.851 382.124 247.231 C 381.329 247.611 380.154 247.992 379.462 248.095 C 377.007 248.51 376.662 248.649 375.452 249.686 L 374.242 250.758 L 374.242 254.215 L 374.242 257.707 L 375.452 258.848 C 376.143 259.47 377.457 260.231 378.39 260.508 C 379.359 260.784 380.638 261.372 381.226 261.821 C 382.85 262.997 383.749 263.343 386.584 263.965 C 389.489 264.587 391.183 265.382 393.223 267.077 C 394.571 268.218 394.882 268.321 396.922 268.321 L 398.81 267.997 L 399.135 265.797 C 399.135 264.38 398.893 262.478 398.616 261.545 C 397.925 259.297 397.925 247.888 398.616 242.218 C 398.893 239.936 399.135 235.096 399.135 231.465 C 399.135 224.378 399.308 223.41 400.933 221.162 C 401.451 220.436 401.901 219.641 401.901 219.399 C 401.901 219.157 402.35 218.5 402.938 217.912 C 403.491 217.29 403.975 216.668 403.975 216.46 C 403.975 216.287 404.217 216.115 404.494 216.115 C 404.77 216.115 405.151 215.803 405.358 215.423 C 405.911 214.42 409.161 214.455 410.613 215.492 C 412.031 216.495 413.863 220.471 414.382 223.79 C 414.935 227.178 414.313 246.056 413.552 248.787 C 412.342 253.178 409.247 257.164 404.681 263.819 C 399.351 271.587 399.619 269.758 398.864 271.457 C 398.05 273.289 398.098 273.404 403.145 273.715 L 406.81 273.957 L 406.603 274.994 C 406.499 275.547 406.395 276.619 406.395 277.38 C 406.395 278.417 406.153 278.97 405.393 279.765 C 404.425 280.733 404.217 280.768 401.382 280.768 C 397.614 280.768 396.3 280.249 395.366 278.382 C 394.433 276.584 394.433 275.34 395.401 274.545 C 396.127 273.991 396.127 273.888 395.608 273.127 C 395.09 272.297 394.951 272.297 386.481 271.917 C 381.744 271.71 377.319 271.398 376.662 271.156 C 376.005 270.949 374.76 270.603 373.896 270.361 C 372.133 269.843 367.776 267.18 365.944 265.486 L 364.734 264.345 L 364.561 255.114 C 364.457 249.133 364.25 245.744 364.008 245.502 C 363.8 245.295 362.694 245.157 361.415 245.226 L 359.202 245.33 L 358.994 254.492 C 358.822 263.308 358.58 265.313 357.611 266.385 C 357.439 266.593 357.3 266.938 357.3 267.215 C 357.3 268.321 355.814 268.978 353.324 268.978 C 351.112 268.978 350.835 268.909 350.178 268.045 C 349.487 267.18 349.417 266.558 349.279 260.542 C 349.106 253.005 348.726 251.691 346.133 249.271 C 344.819 248.061 344.473 247.923 342.883 247.923 C 341.327 247.923 341.016 248.026 340.463 248.856 C 339.668 250.032 338.146 254.872 337.593 257.949 C 337.351 259.194 336.971 260.68 336.694 261.303 C 336.418 261.891 336.21 262.582 336.21 262.789 C 336.21 263.031 335.864 264.138 335.484 265.244 L 334.723 267.284 L 332.442 267.249 C 331.197 267.249 329.537 267.042 328.777 266.8 C 327.463 266.42 327.394 266.316 327.152 264.691 C 327.048 263.723 326.91 260.611 326.91 257.776 C 326.841 253.005 326.357 249.064 325.665 247.923 C 325.458 247.577 324.662 247.542 322.484 247.681 C 318.716 247.957 316.399 249.098 315.5 251.173 C 314.152 254.25 313.391 257.258 313.391 259.47 C 313.391 261.061 311.835 265.452 310.764 266.835 C 309.934 267.941 309.726 268.01 308.413 267.837 C 307.652 267.768 306.096 267.561 305.024 267.422 L 303.019 267.215 L 303.019 264.968 C 303.019 263.758 303.261 261.579 303.572 260.093 C 303.918 258.433 304.091 256.29 303.987 254.284 C 303.883 251.242 303.849 251.103 302.604 249.582 C 300.876 247.473 298.87 246.816 293.684 246.643 C 289.259 246.505 288.913 246.643 287.495 248.994 C 286.838 250.066 286.769 250.723 286.769 256.151 C 286.769 263.17 286.631 263.619 283.9 266.074 C 281.376 268.356 281.341 268.39 279.405 269.324 C 277.918 270.05 277.365 270.119 273.7 269.981 C 270.416 269.912 270.885 269.572 269.778 268.984 L 268.897 266.751 L 266.889 259.643 L 267.307 245.506 L 261.319 243.331 L 255.664 243.917 L 250.353 248.243 L 249.775 253.524 L 249.775 257.223 C 249.775 260.335 249.879 261.026 250.397 261.476 C 251.331 262.271 257.704 264.59 258.534 264.59 C 259.502 264.59 261.008 263.959 260.109 265.964 L 260.004 266.983 L 252.437 268.321 C 248.358 268.287 244.589 267.319 241.961 265.625 C 237.086 262.478 235.219 259.851 234.77 255.633 C 234.528 253.454 233.422 250.377 232.696 249.928 C 232.488 249.79 231.416 249.651 230.31 249.651 C 228.581 249.651 228.236 249.755 227.544 250.585 C 227.129 251.103 226.299 252.072 225.712 252.728 C 224.225 254.423 223.983 255.529 223.188 263.827 C 222.98 265.625 222.635 267.664 222.393 268.356 C 221.528 270.707 221.424 270.741 216.861 270.741 C 212.055 270.741 210.741 270.257 209.082 267.872 C 208.113 266.454 207.871 265.486 206.696 258.295 C 206.385 256.29 205.901 254.423 205.659 254.111 C 205.382 253.835 205.175 253.385 205.175 253.143 C 205.175 252.625 204.172 251 203.481 250.412 C 203.1 250.101 200.818 249.997 194.491 250.032 C 189.824 250.066 185.606 250.17 185.122 250.308 C 184.292 250.55 184.257 250.654 184.154 253.662 C 184.05 256.739 184.085 256.774 185.122 257.776 L 186.194 258.813 L 191.898 258.71 L 197.603 258.571 L 197.361 260.784 C 197.257 261.96 196.842 263.446 196.462 264.069 C 195.736 265.313 193.973 266.523 192.279 266.973 C 191.656 267.111 190.1 267.664 188.752 268.114 C 186.194 269.047 182.148 269.324 180.558 268.702 C 180.109 268.529 178.864 268.183 177.757 267.941 C 176.686 267.699 175.614 267.319 175.406 267.077 C 175.234 266.869 174.369 266.454 173.505 266.212 C 170.704 265.382 168.561 262.34 168.526 259.228 C 168.526 258.468 168.146 257.258 167.662 256.359 C 167.178 255.494 166.798 254.526 166.798 254.146 C 166.798 253.8 166.659 253.42 166.521 253.316 C 165.899 252.936 162.372 257.569 160.609 261.061 C 159.986 262.305 158.949 264.242 158.327 265.382 L 157.151 267.457 L 149.96 267.457 C 140.867 267.457 140.279 267.319 137.098 264.172 C 135.785 262.859 134.505 261.372 134.229 260.853 C 133.537 259.436 132.811 258.191 132.362 257.603 C 132.12 257.327 131.463 256.151 130.841 255.01 C 130.218 253.869 129.561 252.832 129.319 252.694 C 129.112 252.556 128.213 252.417 127.349 252.417 C 125.862 252.417 125.654 252.556 123.027 255.114 C 121.54 256.566 119.12 259.09 117.702 260.68 C 116.285 262.271 113.865 264.553 112.343 265.797 L 109.578 268.01 L 103.838 267.906 L 98.099 267.803 L 96.578 266.558 C 95.713 265.867 94.745 264.691 94.4 263.965 C 94.019 263.204 93.604 262.34 93.466 262.029 C 93.293 261.683 93.155 261.199 93.155 260.888 C 93.155 260.404 92.844 259.574 91.392 256.29 C 90.838 255.045 90.735 254.008 90.769 249.375 C 90.769 246.401 90.942 242.529 91.08 240.835 C 91.253 239.106 91.703 234.439 92.083 230.463 C 92.567 225.277 92.809 220.436 92.809 213.521 L 92.844 203.841 L 93.812 203.08 C 95.091 202.077 98.79 201.248 101.971 201.248 C 105.048 201.248 104.806 200.833 105.048 207.125 C 105.152 209.511 105.463 212.692 105.774 214.213 C 106.086 215.873 106.431 220.298 106.639 225.277 C 106.95 233.816 107.192 235.338 108.851 238.484 C 109.958 240.662 113 241.665 114.556 240.385 C 115.697 239.487 116.008 236.479 116.285 223.548 L 116.527 212.139 L 117.668 208.854 C 118.29 207.056 119.016 205.224 119.258 204.809 C 120.157 203.46 121.313 202.093 124.337 201.226 C 124.35 201.213 128.726 199.967 129.562 200.608 C 131 201.298 131.175 202.277 131.359 202.415 C 132.362 203.66 133.365 205.742 133.814 208.404 C 134.022 209.683 134.125 215.734 134.263 221.819 L 134.54 232.883 L 135.888 236.513 C 136.822 238.968 137.444 240.178 137.825 240.247 C 138.723 240.42 141.835 237.62 142.734 235.822 C 143.702 233.92 144.428 231.12 145.362 225.45 C 145.742 223.064 146.295 219.918 146.572 218.431 C 146.848 216.979 147.09 213.902 147.09 211.654 C 147.09 205.95 147.159 205.673 149.303 204.29 C 151.827 202.631 155.596 200.902 156.736 200.902 C 158.638 200.902 161.715 201.663 162.683 202.354 C 163.202 202.734 163.962 203.841 164.343 204.809 C 165.034 206.468 165.069 207.091 165.069 223.894 C 165.069 233.436 165.173 241.354 165.311 241.492 C 165.449 241.63 165.587 242.08 165.587 242.495 C 165.587 243.151 165.795 243.255 167.385 243.359 C 168.976 243.463 169.252 243.359 169.736 242.598 C 170.047 242.114 170.393 241.077 170.497 240.282 C 170.704 238.933 172.226 235.614 173.159 234.542 C 173.367 234.3 174.162 233.298 174.922 232.295 C 175.683 231.293 177.515 229.253 178.968 227.801 L 181.664 225.104 L 184.845 225.104 C 188.233 225.138 190.861 225.692 194.63 227.282 C 196.358 228.008 197.154 228.665 199.366 231.189 C 202.34 234.542 202.616 235.338 202.236 239.037 C 201.959 241.457 202.374 242.737 203.342 242.737 C 204.276 242.737 208.183 240.731 208.425 240.143 C 208.528 239.832 208.632 231.051 208.667 220.678 C 208.701 199.865 208.874 197.203 210.464 195.439 C 211.087 194.782 211.502 194.679 212.885 194.748 C 214.441 194.852 214.648 194.955 215.409 196.234 Z" fill="#000000" stroke="none"></path>
  <script xlink:href="http://cdnjs.cloudflare.com/ajax/libs/jquery/2.0.0/jquery.min.js"></script>
</svg>